<svg xmlns="http://www.w3.org/2000/svg" width="128" height="50" fill="none">
	<path fill="#004559" d="M107.951 9.482c-11.597-.38-21.058 9.168-20.697 20.85.329 10.574 8.887 19.196 19.383 19.527 11.596.38 21.058-9.168 20.696-20.85-.328-10.575-8.886-19.196-19.382-19.527Zm.148 28.098c-4.994.497-9.15-3.69-8.657-8.72.362-3.724 3.351-6.735 7.047-7.1 4.993-.496 9.149 3.69 8.656 8.721-.361 3.724-3.351 6.735-7.046 7.1ZM20.828 9.482a19.926 19.926 0 0 0-8.673 1.605V1.373c0-.76-.608-1.373-1.363-1.373H1.363C.608 0 0 .612 0 1.373v28.512C.115 40.94 9.05 49.86 20.04 49.86c10.989 0 20.532-9.532 20.023-21.115-.46-10.425-8.903-18.881-19.251-19.279m.049 28.115c-4.994.497-9.15-3.69-8.657-8.72.362-3.724 3.351-6.735 7.047-7.1 4.994-.496 9.15 3.69 8.657 8.721-.362 3.724-3.351 6.735-7.047 7.1ZM73.162 49.048h9.428c.755 0 1.363-.612 1.363-1.374l-.065-35.561c0-.761-.608-1.373-1.364-1.373h-9.428c-.756 0-1.364.612-1.364 1.373l.066 35.561c0 .762.608 1.374 1.364 1.374ZM43.397 29.852v17.822c0 .762.608 1.374 1.364 1.374h9.428c.756 0 1.364-.612 1.364-1.374V24.358c0-.76.607-1.373 1.363-1.373h10.2c.756 0 1.364-.612 1.364-1.373v-9.499c0-.761-.608-1.373-1.364-1.373H62.37c-10.48 0-18.988 8.571-18.988 19.129"/>
</svg>